# xmcd
#
# Track frame offsets:
#	150
#	15039
#	28601
#	39296
#	58713
#	71134
#	86835
#	109638
#	121499
#	136359
#	147810
#	169274
#	184733
#	206135
#	225915
#	245609
#	262869
#	277802
#
# Disc length: 3922 seconds
#
# Revision: 1
# Processed by: cddbd v1.5.2PL0 Copyright (c) Steve Scherf et al.
# Submitted via: EZCDAudioConverter 4.0.5.1
#
DISCID=f10f5012
DTITLE=The Highwaymen - The Highwaymen Live American Outlaws
DYEAR=2016
DGENRE=Country
TTITLE0=Silver Stallion
TTITLE1=The Last Cowboy Song
TTITLE2=Two Stories Wide
TTITLE3=Living Legend
TTITLE4=The Pilgram: Chapter 33
TTITLE5=They Killing Him
TTITLE6=I Still Miss Someone
TTITLE7=Ragged Old Flag
TTITLE8=(Ghost) Riders In The Sky
TTITLE9=Are You Sure Hank Done ItThis Way
TTITLE10=Night Life
TTITLE11=The King Is Gone (So Are You)
TTITLE12=Desperados Waiting For A Train
TTITLE13=Big River
TTITLE14=A Boy Name Sue
TTITLE15=Why Me
TTITLE16=Luckenbech, Texas
TTITLE17=On The Road Again
EXTD=
EXTT0=
EXTT1=
EXTT2=
EXTT3=
EXTT4=
EXTT5=
EXTT6=
EXTT7=
EXTT8=
EXTT9=
EXTT10=
EXTT11=
EXTT12=
EXTT13=
EXTT14=
EXTT15=
EXTT16=
EXTT17=
PLAYORDER=
